<mxfile host="app.diagrams.net" modified="2024-05-17T02:21:56.020Z" agent="Mozilla/5.0 (Windows NT 10.0; Win64; x64; rv:126.0) Gecko/20100101 Firefox/126.0" version="24.4.2" etag="DTxn6CMXDsAj3C7n9dND" type="github">
  <diagram name="Page-1" id="94e7tYB6zD6ux2HHnXpZ">
    <mxGraphModel>
      <root>
        <mxCell id="0" />
        <mxCell id="1" parent="0" />
      </root>
    </mxGraphModel>
  </diagram>
</mxfile>
